<svg width="145" height="38" viewBox="0 0 145 38" fill="none" xmlns="http://www.w3.org/2000/svg">
<g filter="url(#filter0_dd_133_52438)">
<g clipPath="url(#clip0_133_52438)">
<rect x="3" y="2" width="32" height="32" rx="8" fill="#595453"/>
<rect x="3" y="2" width="32" height="32" rx="8" fill="url(#paint0_linear_133_52438)"/>
<path fill-rule="evenodd" clip-rule="evenodd" d="M19 4.03885C11.2895 4.03885 5.03885 10.2895 5.03885 18C5.03885 25.7106 11.2895 31.9612 19 31.9612C26.7106 31.9612 32.9612 25.7106 32.9612 18C32.9612 10.2895 26.7106 4.03885 19 4.03885ZM4.96118 18C4.96118 10.2466 11.2466 3.96118 19 3.96118C26.7535 3.96118 33.0389 10.2466 33.0389 18C33.0389 25.7535 26.7535 32.0389 19 32.0389C11.2466 32.0389 4.96118 25.7535 4.96118 18Z" fill="#D0D5DD"/>
<path fill-rule="evenodd" clip-rule="evenodd" d="M19 14.0779C16.8338 14.0779 15.0777 15.834 15.0777 18.0002C15.0777 20.1665 16.8338 21.9226 19 21.9226C21.1662 21.9226 22.9223 20.1665 22.9223 18.0002C22.9223 15.834 21.1662 14.0779 19 14.0779ZM15 18.0002C15 15.7911 16.7909 14.0002 19 14.0002C21.2091 14.0002 23 15.7911 23 18.0002C23 20.2094 21.2091 22.0002 19 22.0002C16.7909 22.0002 15 20.2094 15 18.0002Z" fill="#D0D5DD"/>
<path fill-rule="evenodd" clip-rule="evenodd" d="M19 15.3201C17.52 15.3201 16.3203 16.5198 16.3203 17.9997C16.3203 19.4796 17.52 20.6793 19 20.6793C20.4799 20.6793 21.6796 19.4796 21.6796 17.9997C21.6796 16.5198 20.4799 15.3201 19 15.3201ZM16.2427 17.9997C16.2427 16.4769 17.4772 15.2424 19 15.2424C20.5228 15.2424 21.7572 16.4769 21.7572 17.9997C21.7572 19.5225 20.5228 20.757 19 20.757C17.4772 20.757 16.2427 19.5225 16.2427 17.9997Z" fill="#D0D5DD"/>
<path d="M18.9612 2H19.0389V34H18.9612V2Z" fill="#D0D5DD"/>
<path d="M35 17.9609L35 18.0386L3 18.0386L3 17.9609L35 17.9609Z" fill="#D0D5DD"/>
<path d="M29.6019 2H29.6796V34H29.6019V2Z" fill="#D0D5DD"/>
<path d="M13.6407 2H13.7184V34H13.6407V2Z" fill="#D0D5DD"/>
<path d="M24.2815 2H24.3592V34H24.2815V2Z" fill="#D0D5DD"/>
<path d="M8.32031 2H8.39798V34H8.32031V2Z" fill="#D0D5DD"/>
<path d="M35 28.6016L35 28.6792L3 28.6792L3 28.6016L35 28.6016Z" fill="#D0D5DD"/>
<path d="M35 12.6406L35 12.7183L3 12.7183L3 12.6406L35 12.6406Z" fill="#D0D5DD"/>
<path d="M35 23.2812L35 23.3589L3 23.3589L3 23.2812L35 23.2812Z" fill="#D0D5DD"/>
<path d="M35 7.32031L35 7.39798L3 7.39798L3 7.32031L35 7.32031Z" fill="#D0D5DD"/>
<g filter="url(#filter1_dd_133_52438)">
<circle cx="19" cy="18" r="8" fill="#FCAF63"/>
</g>
<g filter="url(#filter2_b_133_52438)">
<path d="M3 18H35V21.2C35 25.6804 35 27.9206 34.1281 29.6319C33.3611 31.1372 32.1372 32.3611 30.6319 33.1281C28.9206 34 26.6804 34 22.2 34H15.8C11.3196 34 9.07937 34 7.36808 33.1281C5.86278 32.3611 4.63893 31.1372 3.87195 29.6319C3 27.9206 3 25.6804 3 21.2V18Z" fill="white" fill-opacity="0.2"/>
</g>
</g>
</g>
<path d="M43.056 11.8H45.504V20.92H50.944V23H43.056V11.8ZM53.8445 14.12C53.4925 14.12 53.1885 13.992 52.9325 13.736C52.6765 13.48 52.5485 13.176 52.5485 12.824C52.5485 12.472 52.6765 12.168 52.9325 11.912C53.1885 11.656 53.4925 11.528 53.8445 11.528C54.2072 11.528 54.5112 11.656 54.7565 11.912C55.0125 12.168 55.1405 12.472 55.1405 12.824C55.1405 13.176 55.0125 13.48 54.7565 13.736C54.5112 13.992 54.2072 14.12 53.8445 14.12ZM52.7245 15H54.9645V23H52.7245V15ZM56.867 15H59.107V15.944C59.7363 15.208 60.5257 14.84 61.475 14.84C62.4243 14.84 63.091 15.2133 63.475 15.96C64.1897 15.2133 65.043 14.84 66.035 14.84C66.8563 14.84 67.491 15.0693 67.939 15.528C68.387 15.9867 68.611 16.616 68.611 17.416V23H66.371V17.912C66.371 17.144 66.0297 16.76 65.347 16.76C64.7283 16.76 64.227 17.096 63.843 17.768V23H61.603V17.928C61.603 17.1493 61.2723 16.76 60.611 16.76C60.3017 16.76 60.0137 16.8613 59.747 17.064C59.4803 17.2667 59.267 17.528 59.107 17.848V23H56.867V15ZM74.4593 23.16C73.6273 23.16 72.8806 22.9787 72.2193 22.616C71.5579 22.2533 71.0406 21.7573 70.6673 21.128C70.2939 20.4987 70.1073 19.7893 70.1073 19C70.1073 18.2107 70.2939 17.5013 70.6673 16.872C71.0406 16.2427 71.5579 15.7467 72.2193 15.384C72.8806 15.0213 73.6273 14.84 74.4593 14.84C75.3019 14.84 76.0539 15.0213 76.7153 15.384C77.3766 15.7467 77.8939 16.2427 78.2673 16.872C78.6406 17.5013 78.8273 18.2107 78.8273 19C78.8273 19.7893 78.6406 20.4987 78.2673 21.128C77.8939 21.7573 77.3766 22.2533 76.7153 22.616C76.0539 22.9787 75.3019 23.16 74.4593 23.16ZM74.4593 21.224C75.0779 21.224 75.5846 21.0267 75.9793 20.632C76.3846 20.2267 76.5873 19.6827 76.5873 19C76.5873 18.3173 76.3846 17.7787 75.9793 17.384C75.5846 16.9787 75.0779 16.776 74.4593 16.776C73.8406 16.776 73.3339 16.9787 72.9393 17.384C72.5446 17.7787 72.3473 18.3173 72.3473 19C72.3473 19.6827 72.5446 20.2267 72.9393 20.632C73.3339 21.0267 73.8406 21.224 74.4593 21.224ZM83.0383 23.16C82.1956 23.16 81.5449 22.9253 81.0863 22.456C80.6276 21.9867 80.3983 21.3413 80.3983 20.52V15H81.8063V20.264C81.8063 20.7973 81.9449 21.208 82.2223 21.496C82.5103 21.7733 82.9156 21.912 83.4383 21.912C83.8969 21.912 84.3289 21.7733 84.7343 21.496C85.1503 21.2187 85.5183 20.8453 85.8383 20.376V15H87.2463V23H85.8383V21.96C85.5289 22.2907 85.1236 22.5733 84.6223 22.808C84.1209 23.0427 83.5929 23.16 83.0383 23.16ZM92.1049 23.16C91.1555 23.16 90.3875 22.9253 89.8009 22.456C89.2142 21.9867 88.8835 21.336 88.8089 20.504H90.1369C90.2542 20.9413 90.4622 21.2827 90.7609 21.528C91.0702 21.7627 91.5289 21.88 92.1369 21.88C92.5849 21.88 92.9635 21.7787 93.2729 21.576C93.5929 21.3733 93.7529 21.096 93.7529 20.744C93.7529 20.4027 93.5769 20.1307 93.2249 19.928C92.8835 19.7253 92.2915 19.5173 91.4489 19.304C90.6382 19.1013 90.0409 18.8187 89.6569 18.456C89.2835 18.0933 89.0969 17.608 89.0969 17C89.0969 16.616 89.2089 16.2587 89.4329 15.928C89.6675 15.5973 89.9875 15.336 90.3929 15.144C90.8089 14.9413 91.2782 14.84 91.8009 14.84C92.6649 14.84 93.3635 15.0587 93.8969 15.496C94.4302 15.9333 94.7342 16.5573 94.8089 17.368H93.4169C93.3635 16.9413 93.1929 16.616 92.9049 16.392C92.6169 16.168 92.2489 16.056 91.8009 16.056C91.4489 16.056 91.1342 16.136 90.8569 16.296C90.5795 16.4453 90.4409 16.6693 90.4409 16.968C90.4409 17.256 90.6009 17.496 90.9209 17.688C91.2409 17.8693 91.7795 18.0613 92.5369 18.264C93.4222 18.4987 94.0729 18.792 94.4889 19.144C94.9155 19.496 95.1289 19.9707 95.1289 20.568C95.1289 21.0587 95.0009 21.5013 94.7449 21.896C94.4995 22.2907 94.1475 22.6 93.6889 22.824C93.2302 23.048 92.7022 23.16 92.1049 23.16ZM97.4944 13.784C97.2277 13.784 96.9984 13.6933 96.8064 13.512C96.625 13.32 96.5344 13.0907 96.5344 12.824C96.5344 12.5573 96.625 12.3333 96.8064 12.152C96.9984 11.96 97.2277 11.864 97.4944 11.864C97.761 11.864 97.985 11.96 98.1664 12.152C98.3584 12.3333 98.4544 12.5573 98.4544 12.824C98.4544 13.0907 98.3584 13.32 98.1664 13.512C97.985 13.6933 97.761 13.784 97.4944 13.784ZM96.7904 15H98.1984V23H96.7904V15ZM100.306 15H101.714V16.04C102.023 15.7093 102.429 15.4267 102.93 15.192C103.431 14.9573 103.959 14.84 104.514 14.84C105.357 14.84 106.007 15.0747 106.466 15.544C106.925 16.0133 107.154 16.6587 107.154 17.48V23H105.746V17.736C105.746 17.2027 105.602 16.7973 105.314 16.52C105.037 16.232 104.637 16.088 104.114 16.088C103.655 16.088 103.218 16.2267 102.802 16.504C102.397 16.7813 102.034 17.1547 101.714 17.624V23H100.306V15ZM112.685 23.16C111.885 23.16 111.191 22.9893 110.605 22.648C110.018 22.296 109.565 21.8107 109.245 21.192C108.935 20.5627 108.781 19.832 108.781 19C108.781 18.1893 108.957 17.4693 109.309 16.84C109.661 16.2107 110.135 15.72 110.733 15.368C111.33 15.016 111.981 14.84 112.685 14.84C113.399 14.84 114.039 15.0053 114.605 15.336C115.181 15.656 115.629 16.12 115.949 16.728C116.279 17.336 116.445 18.0613 116.445 18.904V19.448H110.205C110.226 20.2053 110.461 20.8027 110.909 21.24C111.367 21.6667 111.965 21.88 112.701 21.88C113.309 21.88 113.815 21.736 114.221 21.448C114.626 21.1493 114.903 20.7547 115.053 20.264H116.365C116.141 21.1707 115.714 21.88 115.085 22.392C114.455 22.904 113.655 23.16 112.685 23.16ZM115.117 18.232C115.063 17.56 114.807 17.0427 114.349 16.68C113.901 16.3067 113.346 16.12 112.685 16.12C112.045 16.12 111.501 16.3067 111.053 16.68C110.605 17.0533 110.327 17.5707 110.221 18.232H115.117Z" fill="#595453"/>
<defs>
<filter id="filter0_dd_133_52438" x="0" y="0" width="38" height="38" filterUnits="userSpaceOnUse" color-interpolation-filters="sRGB">
<feFlood flood-opacity="0" result="BackgroundImageFix"/>
<feColorMatrix in="SourceAlpha" type="matrix" values="0 0 0 0 0 0 0 0 0 0 0 0 0 0 0 0 0 0 127 0" result="hardAlpha"/>
<feOffset dy="1"/>
<feGaussianBlur stdDeviation="1"/>
<feColorMatrix type="matrix" values="0 0 0 0 0.0627451 0 0 0 0 0.0941176 0 0 0 0 0.156863 0 0 0 0.06 0"/>
<feBlend mode="normal" in2="BackgroundImageFix" result="effect1_dropShadow_133_52438"/>
<feColorMatrix in="SourceAlpha" type="matrix" values="0 0 0 0 0 0 0 0 0 0 0 0 0 0 0 0 0 0 127 0" result="hardAlpha"/>
<feOffset dy="1"/>
<feGaussianBlur stdDeviation="1.5"/>
<feColorMatrix type="matrix" values="0 0 0 0 0.0627451 0 0 0 0 0.0941176 0 0 0 0 0.156863 0 0 0 0.1 0"/>
<feBlend mode="normal" in2="effect1_dropShadow_133_52438" result="effect2_dropShadow_133_52438"/>
<feBlend mode="normal" in="SourceGraphic" in2="effect2_dropShadow_133_52438" result="shape"/>
</filter>
<filter id="filter1_dd_133_52438" x="8" y="8" width="22" height="22" filterUnits="userSpaceOnUse" color-interpolation-filters="sRGB">
<feFlood flood-opacity="0" result="BackgroundImageFix"/>
<feColorMatrix in="SourceAlpha" type="matrix" values="0 0 0 0 0 0 0 0 0 0 0 0 0 0 0 0 0 0 127 0" result="hardAlpha"/>
<feOffset dy="1"/>
<feGaussianBlur stdDeviation="1"/>
<feColorMatrix type="matrix" values="0 0 0 0 0.0627451 0 0 0 0 0.0941176 0 0 0 0 0.156863 0 0 0 0.06 0"/>
<feBlend mode="normal" in2="BackgroundImageFix" result="effect1_dropShadow_133_52438"/>
<feColorMatrix in="SourceAlpha" type="matrix" values="0 0 0 0 0 0 0 0 0 0 0 0 0 0 0 0 0 0 127 0" result="hardAlpha"/>
<feOffset dy="1"/>
<feGaussianBlur stdDeviation="1.5"/>
<feColorMatrix type="matrix" values="0 0 0 0 0.0627451 0 0 0 0 0.0941176 0 0 0 0 0.156863 0 0 0 0.1 0"/>
<feBlend mode="normal" in2="effect1_dropShadow_133_52438" result="effect2_dropShadow_133_52438"/>
<feBlend mode="normal" in="SourceGraphic" in2="effect2_dropShadow_133_52438" result="shape"/>
</filter>
<filter id="filter2_b_133_52438" x="-2" y="13" width="42" height="26" filterUnits="userSpaceOnUse" color-interpolation-filters="sRGB">
<feFlood flood-opacity="0" result="BackgroundImageFix"/>
<feGaussianBlur in="BackgroundImageFix" stdDeviation="2.5"/>
<feComposite in2="SourceAlpha" operator="in" result="effect1_backgroundBlur_133_52438"/>
<feBlend mode="normal" in="SourceGraphic" in2="effect1_backgroundBlur_133_52438" result="shape"/>
</filter>
<linearGradient id="paint0_linear_133_52438" x1="19" y1="2" x2="19" y2="34" gradientUnits="userSpaceOnUse">
<stop stop-color="white"/>
<stop offset="1" stop-color="#D0D5DD"/>
</linearGradient>
<clipPath id="clip0_133_52438">
<rect x="3" y="2" width="32" height="32" rx="8" fill="white"/>
</clipPath>
</defs>
</svg>
