<?xml version="1.0" encoding="UTF-8"?>
<svg width="38" height="38" fill="none" version="1.1" viewBox="0 0 38 38" xmlns="http://www.w3.org/2000/svg">
 <g filter="url(#filter0_dd_133_52438)">
  <g clip-path="url(#clip0_133_52438)">
   <rect x="3" y="2" width="32" height="32" rx="8" fill="#595453"/>
   <rect x="3" y="2" width="32" height="32" rx="8" fill="url(#paint0_linear_133_52438)"/>
   <g clip-rule="evenodd" fill="#d0d5dd" fill-rule="evenodd">
    <path d="m19 4.0388c-7.7105 0-13.961 6.2506-13.961 13.961 0 7.7106 6.2506 13.961 13.961 13.961 7.7106 0 13.961-6.2506 13.961-13.961 0-7.7105-6.2506-13.961-13.961-13.961zm-14.039 13.961c0-7.7534 6.2854-14.039 14.039-14.039 7.7535 0 14.039 6.2854 14.039 14.039 0 7.7535-6.2854 14.039-14.039 14.039-7.7534 0-14.039-6.2854-14.039-14.039z"/>
    <path d="m19 14.078c-2.1662 0-3.9223 1.7561-3.9223 3.9223 0 2.1663 1.7561 3.9224 3.9223 3.9224s3.9223-1.7561 3.9223-3.9224c0-2.1662-1.7561-3.9223-3.9223-3.9223zm-4 3.9223c0-2.2091 1.7909-4 4-4s4 1.7909 4 4c0 2.2092-1.7909 4-4 4s-4-1.7908-4-4z"/>
    <path d="m19 15.32c-1.48 0-2.6797 1.1997-2.6797 2.6796s1.1997 2.6796 2.6797 2.6796c1.4799 0 2.6796-1.1997 2.6796-2.6796s-1.1997-2.6796-2.6796-2.6796zm-2.7573 2.6796c0-1.5228 1.2345-2.7573 2.7573-2.7573s2.7572 1.2345 2.7572 2.7573-1.2344 2.7573-2.7572 2.7573-2.7573-1.2345-2.7573-2.7573z"/>
   </g>
   <g fill="#d0d5dd">
    <path d="m18.961 2h0.0777v32h-0.0777z"/>
    <path d="m35 17.961v0.0777h-32v-0.0777z"/>
    <path d="m29.602 2h0.0777v32h-0.0777z"/>
    <path d="m13.641 2h0.0777v32h-0.0777z"/>
    <path d="m24.282 2h0.0777v32h-0.0777z"/>
    <path d="m8.3203 2h0.07767v32h-0.07767z"/>
    <path d="m35 28.602v0.0776h-32v-0.0776z"/>
    <path d="m35 12.641v0.0777h-32v-0.0777z"/>
    <path d="m35 23.281v0.0777h-32v-0.0777z"/>
    <path d="m35 7.3203v0.07767h-32v-0.07767z"/>
   </g>
   <g filter="url(#filter1_dd_133_52438)">
    <circle cx="19" cy="18" r="8" fill="#fcaf63"/>
   </g>
   <g filter="url(#filter2_b_133_52438)">
    <path d="m3 18h32v3.2c0 4.4804 0 6.7206-0.8719 8.4319-0.767 1.5053-1.9909 2.7292-3.4962 3.4962-1.7113 0.8719-3.9515 0.8719-8.4319 0.8719h-6.4c-4.4804 0-6.7206 0-8.4319-0.8719-1.5053-0.767-2.7292-1.9909-3.4961-3.4962-0.87195-1.7113-0.87195-3.9515-0.87195-8.4319z" fill="#fff" fill-opacity=".2"/>
   </g>
  </g>
 </g>
 <defs>
  <filter id="filter0_dd_133_52438" x="0" y="0" width="38" height="38" color-interpolation-filters="sRGB" filterUnits="userSpaceOnUse">
   <feFlood flood-opacity="0" result="BackgroundImageFix"/>
   <feColorMatrix in="SourceAlpha" result="hardAlpha" values="0 0 0 0 0 0 0 0 0 0 0 0 0 0 0 0 0 0 127 0"/>
   <feOffset dy="1"/>
   <feGaussianBlur stdDeviation="1"/>
   <feColorMatrix values="0 0 0 0 0.0627451 0 0 0 0 0.0941176 0 0 0 0 0.156863 0 0 0 0.06 0"/>
   <feBlend in2="BackgroundImageFix" result="effect1_dropShadow_133_52438"/>
   <feColorMatrix in="SourceAlpha" result="hardAlpha" values="0 0 0 0 0 0 0 0 0 0 0 0 0 0 0 0 0 0 127 0"/>
   <feOffset dy="1"/>
   <feGaussianBlur stdDeviation="1.5"/>
   <feColorMatrix values="0 0 0 0 0.0627451 0 0 0 0 0.0941176 0 0 0 0 0.156863 0 0 0 0.1 0"/>
   <feBlend in2="effect1_dropShadow_133_52438" result="effect2_dropShadow_133_52438"/>
   <feBlend in="SourceGraphic" in2="effect2_dropShadow_133_52438" result="shape"/>
  </filter>
  <filter id="filter1_dd_133_52438" x="8" y="8" width="22" height="22" color-interpolation-filters="sRGB" filterUnits="userSpaceOnUse">
   <feFlood flood-opacity="0" result="BackgroundImageFix"/>
   <feColorMatrix in="SourceAlpha" result="hardAlpha" values="0 0 0 0 0 0 0 0 0 0 0 0 0 0 0 0 0 0 127 0"/>
   <feOffset dy="1"/>
   <feGaussianBlur stdDeviation="1"/>
   <feColorMatrix values="0 0 0 0 0.0627451 0 0 0 0 0.0941176 0 0 0 0 0.156863 0 0 0 0.06 0"/>
   <feBlend in2="BackgroundImageFix" result="effect1_dropShadow_133_52438"/>
   <feColorMatrix in="SourceAlpha" result="hardAlpha" values="0 0 0 0 0 0 0 0 0 0 0 0 0 0 0 0 0 0 127 0"/>
   <feOffset dy="1"/>
   <feGaussianBlur stdDeviation="1.5"/>
   <feColorMatrix values="0 0 0 0 0.0627451 0 0 0 0 0.0941176 0 0 0 0 0.156863 0 0 0 0.1 0"/>
   <feBlend in2="effect1_dropShadow_133_52438" result="effect2_dropShadow_133_52438"/>
   <feBlend in="SourceGraphic" in2="effect2_dropShadow_133_52438" result="shape"/>
  </filter>
  <filter id="filter2_b_133_52438" x="-2" y="13" width="42" height="26" color-interpolation-filters="sRGB" filterUnits="userSpaceOnUse">
   <feFlood flood-opacity="0" result="BackgroundImageFix"/>
   <feGaussianBlur in="BackgroundImageFix" stdDeviation="2.5"/>
   <feComposite in2="SourceAlpha" operator="in" result="effect1_backgroundBlur_133_52438"/>
   <feBlend in="SourceGraphic" in2="effect1_backgroundBlur_133_52438" result="shape"/>
  </filter>
  <linearGradient id="paint0_linear_133_52438" x1="19" x2="19" y1="2" y2="34" gradientUnits="userSpaceOnUse">
   <stop stop-color="#fff" offset="0"/>
   <stop stop-color="#D0D5DD" offset="1"/>
  </linearGradient>
  <clipPath id="clip0_133_52438">
   <rect x="3" y="2" width="32" height="32" rx="8" fill="#fff"/>
  </clipPath>
 </defs>
</svg>
